<svg width="390" height="67" viewBox="0 0 390 67" fill="none" xmlns="http://www.w3.org/2000/svg">
<path d="M18.2613 14.0424C18.2613 14.2683 18.2293 14.5167 18.2213 14.7276C18.0055 12.8526 16.9104 11.2261 15.3438 10.2246C16.7186 12.6192 16.3269 15.6689 14.1848 17.6945C14.0009 17.8601 13.8171 18.0183 13.6332 18.1613C15.7354 15.6689 15.5916 12.0394 13.1456 9.73516C12.9218 9.52432 12.69 9.33606 12.4582 9.16287C12.4023 9.16287 12.3383 9.16294 12.2904 9.14788V19.0875C12.2904 19.4791 11.9547 19.7878 11.547 19.7878C11.1394 19.7878 10.8116 19.4791 10.8116 19.0875H10.8196V9.14788C10.7557 9.15541 10.6917 9.16287 10.6278 9.16287C10.404 9.33606 10.1722 9.52432 9.96435 9.73516C7.49446 12.0394 7.34259 15.6689 9.46078 18.1613C9.26895 18.0183 9.07711 17.8601 8.90925 17.6945C6.77507 15.6689 6.36742 12.6192 7.74225 10.2246C6.17558 11.2337 5.09651 12.8601 4.8727 14.7276C4.84872 14.5092 4.82474 14.2683 4.82474 14.0424C4.82474 11.181 6.85501 8.76382 9.60466 7.98823C7.74225 7.64937 5.74396 8.07854 4.18529 9.26076C4.33716 9.08757 4.50501 8.91442 4.68885 8.74123C6.53528 7.00179 9.213 6.48219 11.547 7.21261C13.881 6.48219 16.5507 7.00179 18.4211 8.74123C18.581 8.90689 18.7489 9.08757 18.9087 9.26076C17.3421 8.07854 15.3598 7.64937 13.4814 7.98823C16.247 8.77135 18.2693 11.181 18.2693 14.0424M11.531 4.84062C5.21641 4.84062 0.0927734 9.65991 0.0927734 15.6237C0.0927734 16.2788 0.164712 16.9188 0.292603 17.5438C4.36913 17.9429 8.24582 19.336 11.531 21.5499C14.8242 19.336 18.6929 17.9429 22.7854 17.5438C22.9053 16.9264 22.9773 16.2788 22.9773 15.6237C22.9773 9.65991 17.8616 4.84062 11.531 4.84062ZM16.0392 25.5182C19.2604 24.2306 21.7223 21.5649 22.6256 18.3345C19.0606 18.9746 15.7035 20.4204 12.8579 22.4987C14.0169 23.4023 15.088 24.4113 16.0392 25.5182ZM0.460462 18.3345C1.3557 21.5649 3.8096 24.2306 7.03086 25.5182C7.99004 24.4113 9.03715 23.4023 10.2121 22.4987C7.37457 20.4204 4.02542 18.9746 0.452467 18.3345M11.531 23.5303C10.6038 24.3134 9.74054 25.1868 8.94123 26.113C9.7885 26.2787 10.6358 26.3916 11.531 26.3916C12.4263 26.3916 13.2895 26.2787 14.1288 26.113C13.3375 25.1868 12.4582 24.3134 11.531 23.5303Z" fill="#A7A9AC"/>
<path d="M44.3437 6.19645C43.5927 6.19645 43.0551 5.65949 43.0551 4.91605C43.0551 4.17261 43.6006 3.52825 44.3437 3.52825C45.0868 3.52825 45.6085 4.13957 45.6085 4.91605C45.6085 5.69253 45.0631 6.19645 44.3437 6.19645ZM39.8061 6.19645C39.0867 6.19645 38.5492 5.65949 38.5492 4.91605C38.5492 4.17261 39.0946 3.52825 39.8061 3.52825C40.5176 3.52825 41.1105 4.13957 41.1105 4.91605C41.1105 5.69253 40.5571 6.19645 39.8061 6.19645ZM41.482 10.9049C38.4701 10.9049 37.0393 14.4651 37.0393 18.3558C37.0393 23.8489 39.5294 25.4928 41.1658 25.4928C43.1263 25.4928 44.7943 24.1298 45.4109 22.0895C45.7508 20.9165 45.822 19.5948 45.822 17.604C45.822 14.4238 45.3397 10.8883 41.4899 10.8883M46.154 22.6099C45.8852 23.2873 45.4741 23.9563 44.9919 24.5428C44.1461 25.501 42.8496 26.4179 40.6915 26.4179C37.308 26.4179 34.7547 22.5025 34.7547 18.1162C34.7547 14.0438 37.3792 9.98796 41.482 9.98796C44.0433 9.98796 45.6797 11.8383 46.1935 11.8383C46.8022 11.8383 46.9129 10.8057 47.1421 10.3844H48.0591C47.901 11.1692 47.901 12.0944 47.901 12.8791V22.3951C47.901 23.4277 48.0591 25.3854 50.1145 25.5093H53.6007V26.4262H51.071C48.6441 26.4262 46.6599 26.0793 46.154 22.6182" fill="black"/>
<path d="M58.5559 32.5642C57.7885 32.5642 57.2171 32.0426 57.2171 31.2803C57.2171 30.5181 57.7885 29.9646 58.5559 29.9646C59.3232 29.9646 59.8702 30.5422 59.8702 31.2803C59.8702 32.0185 59.2906 32.5642 58.5559 32.5642ZM65.6907 26.4262C63.1845 26.4262 61.6417 25.3912 60.4661 23.0403C60.0416 25.2227 58.2538 26.4262 55.7722 26.4262H53.6007V25.5356H55.1354C57.3967 25.4875 58.3192 24.1716 58.3192 21.9571V13.0672C58.3192 12.1926 58.2865 12.0483 57.0865 11.7113L60.5722 11.0131V19.8069C60.5722 22.1337 62.1478 25.5356 64.9397 25.5356H66.0254V26.4262H65.6907ZM53.8783 32.5642C53.1354 32.5642 52.5639 32.0426 52.5639 31.2803C52.5639 30.5181 53.1354 29.9646 53.8783 29.9646C54.6211 29.9646 55.1844 30.5422 55.1844 31.2803C55.1844 32.0185 54.6619 32.5642 53.8783 32.5642Z" fill="black"/>
<path d="M66.035 25.4678H66.3337C68.4846 25.4678 69.3584 24.0655 69.3584 21.7889V5.77854C69.3584 4.8877 69.321 4.56599 68.2232 4.2113L71.4121 3.49368V21.7971C71.4121 24.7584 69.6496 26.3916 66.9984 26.3916H66.0275V25.4761L66.035 25.4678Z" fill="black"/>
<path d="M76.8027 22.0116V5.98476C76.8027 4.98668 76.2614 4.62373 74.1044 4.62373V3.6999L79.112 3.49368V22.2343C79.112 24.2635 80.1609 25.3523 82.0218 25.4761H83.5274V26.3916H81.8442C78.9259 26.3916 76.8027 25.3523 76.8027 22.0281" fill="black"/>
<path d="M94.6422 13.7583C90.5036 13.7583 90.9406 19.7523 88.929 23.427C89.0856 23.5332 89.1846 23.6393 89.2258 23.7373C90.1986 24.8642 91.7897 26.8077 94.4608 26.8077C96.9835 26.8077 99.1764 24.0558 99.1764 20.6669C99.1764 17.278 97.6842 13.8727 94.7328 13.7583H94.6339H94.6422ZM106.233 26.1708C103.711 26.1708 102.4 25.1173 101.106 23.1085C100.256 25.6073 97.981 27.7386 94.3124 27.7386C91.1467 27.7386 89.5638 25.8604 88.5086 24.415L88.3684 24.268C87.4698 25.4358 86.5794 26.1708 84.5926 26.1708H83.5538V25.2643H84.6338C84.8811 25.2154 85.8127 25.0846 86.3074 24.5783C89.8936 21.2956 87.2967 12.9499 95.2275 12.9499C99.3331 12.9499 101.575 17.2126 101.575 20.4871C101.575 20.9118 101.534 21.3773 101.46 21.7529C102.062 23.5576 103.496 25.2562 105.45 25.2562H106.233C108.624 25.2562 109.581 23.8679 109.581 21.6141V5.76386C109.581 4.88193 109.556 4.55527 108.303 4.2123L111.823 3.49368V21.6141C111.823 24.5457 109.877 26.1626 106.992 26.1626H106.242L106.233 26.1708Z" fill="black"/>
<path d="M116.832 5.77854C116.832 4.8877 116.807 4.55774 115.861 4.2113L118.554 3.49368V26.3916H116.832V5.77854Z" fill="black"/>
<path d="M146.874 7.3043C146.087 7.3043 145.562 6.80234 145.562 6.09952C145.562 5.3967 146.087 4.84062 146.874 4.84062C147.611 4.84062 148.169 5.37353 148.169 6.09952C148.169 6.82551 147.611 7.3043 146.874 7.3043ZM142.153 7.3043C141.415 7.3043 140.858 6.80234 140.858 6.09952C140.858 5.3967 141.407 4.84062 142.153 4.84062C142.94 4.84062 143.513 5.37353 143.513 6.09952C143.513 6.82551 142.94 7.3043 142.153 7.3043ZM145.882 11.9692C145.562 11.892 145.276 11.861 145.021 11.861C141.604 11.861 137.956 15.3133 137.956 20.4956C137.956 22.5346 139.194 25.0369 141.563 25.1296C144.046 25.1296 145.89 22.5964 145.89 19.8314V11.9692H145.882ZM148.12 20.6656C148.12 26.1105 144.71 31.7794 138.03 31.7794C131.35 31.7794 127.899 26.1105 127.899 20.6656V15.8694C127.899 14.9658 127.383 14.6337 125.284 14.6337V13.7687L130.137 13.5679V20.6656C130.137 28.6746 134.096 30.8757 138.03 30.8757C141.415 30.8757 144.882 29.1998 145.677 23.4769C144.759 24.9675 143.366 25.8711 140.825 25.8711C138.563 25.8711 135.735 23.8784 135.735 20.7119C135.735 14.8345 139.981 11.0655 145.89 11.0655H148.152L148.128 20.6733L148.12 20.6656Z" fill="black"/>
<path d="M161.754 23.3189V11.2083C161.5 11.1246 161.191 11.0911 160.952 11.0911C157.764 11.0911 154.291 14.8347 154.291 20.4545C154.291 22.6991 155.457 25.2201 157.718 25.3458H161.585C161.693 24.6925 161.724 24.0727 161.754 23.3189ZM168.361 26.2838H163.56C162.434 31.8199 158.729 33.1263 156.028 33.1263C155.565 33.1263 155.102 33.0761 153.867 32.9756C156.861 32.2637 160.327 31.2922 161.43 26.2838H157C154.901 26.2838 152.207 24.1229 152.207 20.6891C152.207 14.3155 156.197 10.2284 161.762 10.2284H163.931V23.1849C163.931 23.9805 163.823 24.7093 163.73 25.3625H168.361V26.2922V26.2838Z" fill="black"/>
<path d="M168.361 25.4493H168.703C170.945 25.4493 171.83 24.0188 171.83 21.6966V15.0917C171.83 14.183 171.784 14.04 170.643 13.6782L173.926 12.9545V19.4501C173.926 21.8481 175.4 25.4577 178.031 25.4577C180.32 25.4577 181.221 24.0273 181.221 21.705V13.7539C181.221 12.8031 181.197 12.7106 180.026 12.3067L183.339 11.6167V19.4501C183.339 21.8902 184.884 25.4577 187.484 25.4577C189.765 25.4577 190.681 24.0273 190.681 21.705V12.3824C190.681 11.4653 190.642 11.3138 189.47 10.9604L192.784 10.2284V19.4501C192.784 21.8902 194.336 25.4577 196.936 25.4577H197.976V26.3916H197.666C195.299 26.3916 193.832 25.2725 192.683 22.8409C192.295 25.1295 190.604 26.3916 188.244 26.3916C185.885 26.3916 184.488 25.3819 183.246 22.8409C182.85 25.1295 181.135 26.3916 178.861 26.3916C176.587 26.3916 175.206 25.3315 174.003 23.2027L173.895 23.0261C173.437 25.2053 171.76 26.3916 169.417 26.3916H168.369V25.4577L168.361 25.4493Z" fill="black"/>
<path d="M197.984 25.4678H198.259C200.427 25.4678 201.305 24.0655 201.305 21.7889V5.77854C201.305 4.8877 201.276 4.56599 200.166 4.2113L203.361 3.49368V21.7971C203.361 24.7584 201.588 26.3916 198.944 26.3916L197.976 26.3916V25.4761L197.984 25.4678Z" fill="black"/>
<path d="M208.377 5.77854C208.377 4.8877 208.351 4.55774 207.399 4.2113L210.092 3.49368V26.3916H208.377V5.77854Z" fill="black"/>
<path d="M230.466 6.16188C229.706 6.16188 229.16 5.62491 229.16 4.88148C229.16 4.13804 229.706 3.49368 230.466 3.49368C231.17 3.49368 231.716 4.105 231.716 4.88148C231.716 5.65796 231.17 6.16188 230.466 6.16188ZM225.916 6.16188C225.196 6.16188 224.643 5.62491 224.643 4.88148C224.643 4.13804 225.196 3.49368 225.916 3.49368C226.636 3.49368 227.214 4.105 227.214 4.88148C227.214 5.65796 226.652 6.16188 225.916 6.16188ZM227.586 10.8703C224.571 10.8703 223.139 14.4305 223.139 18.3212C223.139 23.8144 225.639 25.4582 227.285 25.4582C229.224 25.4582 230.901 24.0952 231.51 22.0549C231.858 20.8819 231.922 19.5602 231.922 17.5695C231.922 14.3892 231.455 10.8537 227.578 10.8537M232.262 22.5753C232.001 23.2527 231.589 23.9218 231.099 24.5082C230.252 25.4664 228.962 26.3834 226.81 26.3834C223.408 26.3834 220.861 22.4679 220.861 18.0816C220.861 14.0092 223.487 9.95339 227.586 9.95339C230.149 9.95339 231.795 11.8037 232.301 11.8037C232.91 11.8037 233.005 10.7712 233.251 10.3499H234.168C234.01 11.1346 234.01 12.0598 234.01 12.8445V22.3606C234.01 23.3931 234.168 25.3508 236.226 25.4747H239.707V26.3916H237.191C234.762 26.3916 232.776 26.0447 232.262 22.5836" fill="black"/>
<path d="M247.103 6.74335V5.98739H245.91C244.257 5.98739 243.398 4.20998 243.398 3.09204C243.398 2.29582 243.843 1.49951 244.734 1.49951C245.147 1.49951 245.56 1.56387 245.695 1.91775C245.489 2.05447 245.25 2.39232 245.25 2.68186C245.25 3.09204 245.592 3.40562 245.974 3.40562C246.355 3.40562 246.649 3.19655 246.649 2.53705C246.649 1.53172 245.854 0.799805 244.797 0.799805C243.255 0.799805 242.333 2.05446 242.333 3.51018C242.333 4.62007 243.16 5.5209 243.875 5.97934H242.054L241.752 6.7353H247.11L247.103 6.74335ZM251.491 26.3916C249.058 26.3916 247.548 25.3542 246.411 22.9977C246.013 25.1853 244.257 26.3916 241.856 26.3916H239.733V25.4989H241.244C243.43 25.4507 244.336 24.1316 244.336 21.9118V13.0006C244.336 12.1239 244.296 11.9792 243.12 11.6414L246.522 10.9337V19.7484C246.522 22.0808 248.064 25.4909 250.775 25.4909H251.848V26.3836H251.499L251.491 26.3916Z" fill="black"/>
<path d="M256.782 32.5344C255.99 32.5344 255.436 32.0128 255.436 31.2506C255.436 30.4884 255.998 29.9348 256.782 29.9348C257.516 29.9348 258.079 30.5124 258.079 31.2506C258.079 31.9888 257.516 32.5344 256.782 32.5344ZM263.896 26.3965C261.391 26.3965 259.849 25.3615 258.683 23.0106C258.275 25.193 256.472 26.3965 253.992 26.3965H251.805V25.5059H253.363C255.623 25.4577 256.537 24.1418 256.537 21.9274V13.0374C256.537 12.1629 256.488 12.0185 255.305 11.6815L258.789 10.9834V19.7771C258.789 22.1039 260.38 25.5059 263.162 25.5059H264.247V26.3965H263.896ZM252.099 32.5344C251.356 32.5344 250.785 32.0128 250.785 31.2506C250.785 30.4884 251.348 29.9348 252.099 29.9348C252.849 29.9348 253.396 30.5124 253.396 31.2506C253.396 31.9888 252.866 32.5344 252.099 32.5344Z" fill="black"/>
<path d="M267.792 25.4745H269.647C272.128 25.4745 275.431 24.3076 275.431 20.933C275.431 19.2037 274.045 18.3223 272.699 18.3223C270.727 18.3223 268.708 20.3538 268.199 23.0737L267.8 25.4745H267.792ZM283.093 26.4063H264.247V25.4745H267.049C267.08 25.1723 267.15 24.9288 267.182 24.6601C267.205 24.1565 267.315 23.6864 267.416 23.2583C268.019 20.1439 269.929 17.3233 273.122 17.3233C275.885 17.3233 277.45 19.3884 277.45 21.571C277.45 23.1576 276.566 24.7526 274.546 25.4829H280.557C280.557 16.8533 277.215 12.5385 274.202 12.5385C270.25 12.5385 269.076 14.9981 268.496 18.5238H268.097C268.16 13.4115 271.032 11.5983 274.147 11.5983H274.178C279.313 11.5983 283.093 18.7085 283.093 25.4829V26.4147V26.4063Z" fill="black"/>
<path d="M14.4735 49.7611H13.717C13.1927 46.7985 11.6348 43.3486 8.24932 43.3486C5.61286 43.3486 2.57943 45.3604 2.57943 52.653C2.57943 59.9456 5.16346 61.9574 8.36167 61.9574C11.8819 61.9574 13.8293 59.0341 13.9791 54.8927H14.9004C14.9004 59.7178 12.4662 62.759 8.36167 62.759C2.87154 62.759 0.0927734 57.5959 0.0927734 52.653C0.0927734 46.9006 3.85272 42.5549 8.36167 42.5549C10.9532 42.5549 12.2789 44.3703 12.8481 44.3703C13.335 44.3703 13.5522 43.5137 13.717 43.1758H14.4735V49.7611Z" fill="black"/>
<path d="M24.1386 54.4751C21.632 55.0727 18.3278 55.911 18.3278 59.447C18.3278 60.8166 19.4444 61.7131 20.5761 61.7131C22.5207 61.7131 24.131 59.3807 24.131 56.6167V54.4751H24.1386ZM26.0147 52.317V60.2854C26.0147 61.1818 26.3338 61.3645 26.7515 61.3645C27.2832 61.3645 27.6023 60.8249 27.6023 59.032H28.3618C28.3618 61.0324 27.8453 62.3937 26.1135 62.3937C24.8602 62.3937 24.2525 61.489 24.1917 59.8123H24.1462C23.379 61.4392 21.951 62.759 19.9457 62.759C18.1607 62.759 16.2465 61.5802 16.2465 59.2478C16.2465 55.4379 21.6244 54.4087 24.1462 53.6949V51.5699C24.1462 49.8684 23.3258 48.781 21.3509 48.781C20.1963 48.781 19.019 49.2376 18.2746 49.8601L18.3354 49.9265C18.8823 49.9514 19.4823 50.3913 19.4823 51.2131C19.4823 51.9269 19.019 52.674 18.1911 52.674C17.4315 52.674 16.9529 52.0431 16.9529 50.989C16.9529 49.3289 18.8215 47.9427 21.2901 47.9427C24.3057 47.9427 26.0223 49.03 26.0223 52.317" fill="black"/>
<path d="M32.4975 55.0882C32.4975 60.0308 33.4108 61.4167 36.1952 61.4167C38.1702 61.4167 39.8854 59.6223 39.8854 55.0882C39.8854 50.5542 38.1628 48.7517 36.1952 48.7517C34.2276 48.7517 32.4975 50.5462 32.4975 55.0882ZM30.6784 50.2578C30.6784 49.3926 30.2478 49.0962 28.5475 49.0962V48.2952L32.4678 48.1269V50.6984H32.5198C33.4108 49.3286 34.0494 47.9427 36.4254 47.9427C39.6478 47.9427 41.8233 51.4674 41.8233 55.0882C41.8233 58.709 39.6478 62.2338 36.0021 62.2338C34.5468 62.2338 33.3143 61.5849 32.5421 60.4073H32.4901V64.8212C32.4901 65.6863 32.9282 65.9827 34.6879 65.9827V66.7998H28.3618V65.9827C30.2404 65.9827 30.671 65.6863 30.671 64.8212V50.2578H30.6784Z" fill="black"/>
<path d="M47.7249 43.9035C47.7249 44.6544 47.1338 45.2137 46.3693 45.2137C45.6048 45.2137 44.9901 44.6621 44.9901 43.9035C44.9901 43.1449 45.589 42.5549 46.3693 42.5549C47.1496 42.5549 47.7249 43.1373 47.7249 43.9035ZM49.9002 61.4121H43.1694V60.6305C45.1634 60.6305 45.6284 60.3623 45.6284 59.5195V50.2862C45.6284 49.4587 45.1713 49.1752 43.3744 49.1752V48.409L47.5594 48.2481V59.5195C47.5594 60.3547 48.0086 60.6305 49.8923 60.6305V61.4121H49.9002Z" fill="black"/>
<path d="M57.555 48.2834V49.1029H53.6185V59.4971C53.6185 61.3147 54.4261 61.9313 55.3284 61.9313C56.0925 61.9313 57.2494 61.2903 57.2494 58.9697V57.712H57.9771V58.7749C57.9771 61.1199 57.0093 62.759 54.8627 62.759C52.9345 62.759 51.843 61.5743 51.843 59.3591V49.1029H49.9002V48.2834C52.1049 48.2834 52.7307 45.8898 52.8981 43.9018H53.6185V48.2834H57.555Z" fill="black"/>
<path d="M68.0807 54.4751C65.3023 55.0727 61.6203 55.911 61.6203 59.447C61.6203 60.8166 62.8701 61.7131 64.12 61.7131C66.2904 61.7131 68.0723 59.3807 68.0723 56.6167V54.4751H68.0807ZM70.1582 52.317V60.2854C70.1582 61.1818 70.5298 61.3645 70.9943 61.3645C71.5686 61.3645 71.9233 60.8249 71.9233 59.032H72.7847C72.7847 61.0324 72.2104 62.3937 70.2934 62.3937C68.8746 62.3937 68.2159 61.489 68.1483 59.8123H68.0892C67.2363 61.4392 65.657 62.759 63.436 62.759C61.4514 62.759 59.3232 61.5802 59.3232 59.2478C59.3232 55.4379 65.2939 54.4087 68.0892 53.6949V51.5699C68.0892 49.8684 67.1771 48.781 64.9898 48.781C63.7146 48.781 62.3888 49.2376 61.5696 49.8601L61.6287 49.9265C62.2452 49.9514 62.9124 50.3913 62.9124 51.2131C62.9124 51.9269 62.3888 52.674 61.4851 52.674C60.5815 52.674 60.1086 52.0431 60.1086 50.989C60.1086 49.3289 62.1861 47.9427 64.9307 47.9427C68.2834 47.9427 70.1667 49.03 70.1667 52.317" fill="black"/>
<path d="M77.1849 59.5355C77.1849 60.3636 77.6431 60.6371 79.5154 60.6371V61.4121H72.7847V60.6371C74.7912 60.6371 75.2573 60.3712 75.2573 59.5355V44.5227C75.2573 43.6945 74.7991 43.4286 73.0059 43.4286V42.6537L77.1849 42.5549V59.5431V59.5355Z" fill="black"/>
<path d="M92.1412 42.5549L97.5835 57.7211H97.7009L103.445 42.5549H109.08V43.3144C106.724 43.3144 106.321 43.451 106.321 45.1978V58.7388C106.321 60.4931 106.724 60.6298 109.131 60.6298V61.4045H101.164V60.6298C103.68 60.6298 104.015 60.4931 104.015 58.7388V43.9751H103.957L97.2649 61.4045H96.5521L90.1622 43.9751H90.0868V58.6628C90.0868 60.0071 90.7911 60.5766 92.9714 60.6374V61.4121H86.2461V60.6374C88.3761 60.5842 89.0721 60.0147 89.0721 58.6628V45.1978C89.0721 43.451 88.678 43.3144 86.2461 43.3144V42.5549H92.1412Z" fill="black"/>
<path d="M117.033 54.4751C114.535 55.0727 111.226 55.911 111.226 59.447C111.226 60.8166 112.349 61.7131 113.465 61.7131C115.424 61.7131 117.04 59.3807 117.04 56.6167V54.4751H117.033ZM118.885 52.317V60.2854C118.885 61.1818 119.212 61.3645 119.629 61.3645C120.145 61.3645 120.479 60.8249 120.479 59.032H121.246C121.246 61.0324 120.722 62.3937 118.999 62.3937C117.724 62.3937 117.139 61.489 117.086 59.8123H117.025C116.251 61.4392 114.839 62.759 112.835 62.759C111.044 62.759 109.131 61.5802 109.131 59.2478C109.131 55.4379 114.497 54.4087 117.025 53.6949V51.5699C117.025 49.8684 116.198 48.781 114.232 48.781C113.078 48.781 111.901 49.2376 111.157 49.8601L111.218 49.9265C111.757 49.9514 112.372 50.3913 112.372 51.2131C112.372 51.9269 111.901 52.674 111.082 52.674C110.315 52.674 109.844 52.0431 109.844 50.989C109.844 49.3289 111.727 47.9427 114.179 47.9427C117.2 47.9427 118.893 49.03 118.893 52.317" fill="black"/>
<path d="M124.706 50.1785C124.706 49.343 124.283 49.0568 122.621 49.0568V48.2831L126.484 48.1206V51.4706H126.557C127.147 49.8536 128.087 47.9427 129.989 47.9427C131.039 47.9427 132.015 48.6235 132.015 49.8691C132.015 50.7201 131.527 51.2384 130.805 51.2384C130.084 51.2384 129.588 50.8284 129.588 49.9851C129.588 49.49 129.807 49.0877 130.222 48.8634C130.149 48.7551 129.989 48.7241 129.836 48.7241C129.151 48.7241 127.54 49.5596 126.855 52.778C126.484 54.5342 126.484 57.126 126.484 58.9441C126.484 60.3522 126.921 60.6229 128.852 60.6229V61.4121H122.592V60.6229C124.276 60.6229 124.698 60.3522 124.698 59.5011V50.1785H124.706Z" fill="black"/>
<path d="M146.594 48.5242V49.2836C144.331 49.4583 143.424 50.1038 139.618 53.5061L143.585 58.9362C144.738 60.5539 145.111 60.6298 146.823 60.6298V61.4045H143.059L138.135 54.6833L136.728 55.8377V59.5362C136.728 60.364 137.211 60.6374 139.237 60.6374V61.4121H132.015V60.6374C134.151 60.6374 134.643 60.3716 134.643 59.5362V44.5219C134.643 43.6941 134.143 43.4282 132.227 43.4282V42.6536L136.728 42.5549V54.9263L141.432 51.0987C141.957 50.6583 142.381 50.2709 142.381 49.838C142.381 49.4051 141.83 49.276 140.059 49.276V48.5166H146.602L146.594 48.5242Z" fill="black"/>
<path d="M155.586 54.1798C155.586 51.7381 154.948 48.7898 152.269 48.7898C149.864 48.7898 148.785 51.5803 148.785 54.1798H155.586ZM148.793 55.8907C148.793 59.2542 150.219 61.9202 152.798 61.9202C155.064 61.9202 155.955 60.716 156.955 59.0383L157.585 59.5117C156.013 62.1527 154.782 62.759 152.587 62.759C149.01 62.759 146.823 59.0881 146.823 55.3508C146.823 50.974 148.93 47.9427 152.479 47.9427C155.731 47.9427 157.592 51.4723 157.592 55.0186H148.793V55.8907Z" fill="black"/>
<path d="M166.523 48.2834V49.1029H161.943V59.4971C161.943 61.3147 162.859 61.9313 163.919 61.9313C164.81 61.9313 166.158 61.2903 166.158 58.9697V57.712H167.015V58.7749C167.015 61.1199 165.878 62.759 163.368 62.759C161.137 62.759 159.865 61.5743 159.865 59.3591V49.1029H157.592V48.2834C160.162 48.2834 160.891 45.8898 161.069 43.9018H161.943V48.2834H166.523Z" fill="black"/>
<path d="M178.227 54.0577H184.569L181.413 45.6167L178.227 54.0577ZM172.399 61.4121V60.6371C174.238 60.6371 174.854 60.394 175.22 59.4367L181.686 42.5549H182.372L188.807 59.5962C189.142 60.4775 189.789 60.6371 191.246 60.6371V61.4121H184.078V60.6371C186.158 60.6371 186.571 60.4167 186.571 59.8697C186.571 59.1024 185.145 55.8886 184.896 54.9921H177.892C177.76 55.4556 176.287 59.0796 176.287 59.9001C176.287 60.5383 176.918 60.6371 178.827 60.6371V61.4121H172.399Z" fill="black"/>
<path d="M202.593 60.3106C202.593 61.2277 203.031 61.5305 204.707 61.5305V62.3887L200.666 62.5654V60.319H200.612C199.617 61.8167 198.599 62.759 196.367 62.759C193.94 62.759 192.123 61.8167 192.123 58.7457V50.1807C192.123 49.272 191.677 48.9608 189.899 48.9608V48.1194L194.05 47.9427V58.9645C194.05 60.8996 195.028 61.9092 196.712 61.9092C199.077 61.9092 200.659 59.8395 200.659 56.432V50.1807C200.659 49.272 200.212 48.9608 198.419 48.9608V48.1194L202.585 47.9427V60.319L202.593 60.3106Z" fill="black"/>
<path d="M212.362 48.2834V49.1029H208.433V59.4971C208.433 61.3147 209.218 61.9313 210.135 61.9313C210.892 61.9313 212.049 61.2903 212.049 58.9697V57.712H212.784V58.7749C212.784 61.1199 211.809 62.759 209.662 62.759C207.749 62.759 206.643 61.5743 206.643 59.3591V49.1029H204.707V48.2834C206.912 48.2834 207.538 45.8898 207.698 43.9018H208.44V48.2834H212.369H212.362Z" fill="black"/>
<path d="M224.901 61.4045V52.5189C224.901 51.0987 224.901 48.9494 222.335 48.9494C220.162 48.9494 218.39 51.0455 218.39 54.6529V59.5286C218.39 60.3564 218.837 60.6298 220.609 60.6298V61.4045H214.13V60.6298C216.056 60.6298 216.503 60.364 216.503 59.5286V44.5219C216.503 43.6941 216.056 43.4282 214.3 43.4282V42.6536L218.39 42.5549V50.7645H218.444C219.423 49.0406 220.609 48.19 222.782 48.19C225.224 48.19 226.78 49.3748 226.78 52.2455V59.5362C226.78 60.364 227.112 60.6374 228.938 60.6374V61.4121H224.893L224.901 61.4045Z" fill="black"/>
<path d="M238.938 55.3508C238.938 51.1235 237.699 48.7815 234.995 48.7815C232.292 48.7815 231.052 51.1235 231.052 55.3508C231.052 59.5781 232.292 61.9119 234.995 61.9119C237.699 61.9119 238.938 59.5781 238.938 55.3508ZM228.938 55.3508C228.938 51.5969 231.2 47.9427 234.995 47.9427C238.791 47.9427 241.053 51.5969 241.053 55.3508C241.053 59.1047 238.806 62.759 234.995 62.759C231.184 62.759 228.938 59.0881 228.938 55.3508Z" fill="black"/>
<path d="M243.46 50.1785C243.46 49.343 242.977 49.0568 241.078 49.0568V48.2831L245.509 48.1206V51.4706H245.567C246.258 49.8536 247.333 47.9427 249.507 47.9427C250.714 47.9427 251.822 48.6235 251.822 49.8691C251.822 50.7201 251.247 51.2384 250.439 51.2384C249.632 51.2384 249.057 50.8284 249.057 49.9851C249.057 49.49 249.298 49.0877 249.773 48.8634C249.682 48.7551 249.507 48.7241 249.323 48.7241C248.541 48.7241 246.7 49.5596 245.917 52.778C245.509 54.5342 245.509 57.126 245.509 58.9441C245.509 60.3522 245.984 60.6229 248.207 60.6229V61.4121H241.053V60.6229C242.977 60.6229 243.46 60.3522 243.46 59.5011V50.1785Z" fill="black"/>
<path d="M256.404 43.9035C256.404 44.6544 255.796 45.2137 255.029 45.2137C254.263 45.2137 253.655 44.6621 253.655 43.9035C253.655 43.1449 254.255 42.5549 255.029 42.5549C255.756 42.5549 256.404 43.1373 256.404 43.9035ZM258.553 61.4121H251.822V60.6305C253.829 60.6305 254.279 60.3623 254.279 59.5195V50.2862C254.279 49.4587 253.829 49.1752 252.035 49.1752V48.409L256.23 48.2481V59.5195C256.23 60.3547 256.673 60.6305 258.553 60.6305V61.4121Z" fill="black"/>
<path d="M266.208 48.2835V49.103H262.268V59.4971C262.268 61.3147 263.06 61.9313 263.969 61.9313C264.732 61.9313 265.895 61.2903 265.895 58.9697V57.712H266.63V58.7749C266.63 61.1199 265.663 62.759 263.504 62.759C261.592 62.759 260.494 61.5744 260.494 59.3592V49.103H258.553V48.2835C260.748 48.2835 261.381 45.8898 261.541 43.9018H262.268V48.2835H266.208Z" fill="black"/>
<path d="M266.63 47.9427H272.639V48.7597C270.693 48.7597 270.478 49.0211 270.478 49.4623C270.478 50.1977 272.017 54.1276 273.786 58.9318H273.845C275.606 53.9478 276.998 50.7043 276.998 49.6993C276.998 49.0212 276.583 48.7597 275.022 48.7597V47.9427H280.091V48.7597C278.722 48.7597 278.3 49.0538 277.797 50.4346L273.786 61.4891C272.321 65.5661 271.433 66.7998 269.435 66.7998C268.073 66.7998 266.896 65.7785 266.896 64.4386C266.896 63.5153 267.503 62.8536 268.25 62.8536C268.902 62.8536 269.435 63.352 269.435 63.9974C269.435 64.8798 268.983 65.3863 268.176 65.4435C268.354 65.7703 268.872 65.9746 269.56 65.9746C271.092 65.9746 272.18 64.2016 272.846 61.4482L268.687 49.879C268.361 48.964 267.695 48.7679 266.637 48.7679V47.9508L266.63 47.9427Z" fill="black"/>
<path d="M367.187 22.7696L388.979 0.84982L389.103 65.3431L367.187 22.7696Z" fill="url(#paint0_linear_33_14816)"/>
<path d="M346.418 43.4708L324.626 65.3906L324.502 0.897238L346.418 43.4708Z" fill="url(#paint1_linear_33_14816)"/>
<path d="M346.452 43.502L324.628 65.3906L389.122 65.2302L346.452 43.502Z" fill="#004A98"/>
<path d="M367.153 22.7383L388.977 0.84968L324.483 1.01008L367.153 22.7383Z" fill="#5EB3E4"/>
<defs>
<linearGradient id="paint0_linear_33_14816" x1="389.237" y1="65.3432" x2="389.237" y2="0.849787" gradientUnits="userSpaceOnUse">
<stop stop-color="#B1B2B3"/>
<stop offset="0.692482" stop-color="white" stop-opacity="0.64"/>
<stop offset="1" stop-color="#D8D8D8" stop-opacity="0"/>
</linearGradient>
<linearGradient id="paint1_linear_33_14816" x1="324.368" y1="0.897153" x2="324.368" y2="65.3906" gradientUnits="userSpaceOnUse">
<stop stop-color="#B1B2B3"/>
<stop offset="0.692482" stop-color="white" stop-opacity="0.64"/>
<stop offset="1" stop-color="#D8D8D8" stop-opacity="0"/>
</linearGradient>
</defs>
</svg>
